<svg width="558" height="742" viewBox="0 0 558 742" fill="none" xmlns="http://www.w3.org/2000/svg">
<path fill-rule="evenodd" clip-rule="evenodd" d="M253.326 51L335.5 0.30844V0L335.721 0.172304L336 0V0.390386L558 173.722V198V231V442V492H505H336H284H0V442V334L85.0276 273L161 222.663V222L161.501 222.331L162 222V222.661L283.5 303L284 307.357V287.882L251 267.5L161 204H162V112L253.326 51ZM217 287.389L162 251.159V334V442H217V287.389ZM237 300.563V442H284V331.524L237 300.563ZM336 112V87.8225L407 133.613V442H336V320V274V204V112ZM437 442V152.962L506.833 198H505V442H437Z" fill="black"/>
<path d="M144.125 602.375C144.125 608.969 141.812 614.062 137.188 617.656C132.562 621.219 125.953 623 117.359 623H86.7031V555.781H115.25C133.094 555.781 142.016 561.203 142.016 572.047C142.016 574.391 141.453 576.547 140.328 578.516C139.203 580.453 137.484 582.156 135.172 583.625C132.891 585.094 130.375 586.094 127.625 586.625V586.812C130.812 587.188 133.672 588.141 136.203 589.672C138.734 591.172 140.688 593.062 142.062 595.344C143.438 597.594 144.125 599.938 144.125 602.375ZM120.5 575.562C120.5 571.406 117.234 569.328 110.703 569.328H106.953V582.031H112.812C115.062 582.031 116.906 581.438 118.344 580.25C119.781 579.031 120.5 577.469 120.5 575.562ZM122.609 602.281C122.609 600.344 121.906 598.75 120.5 597.5C119.094 596.25 117.234 595.625 114.922 595.625H106.953V609.359H113.703C116.453 609.359 118.625 608.734 120.219 607.484C121.812 606.203 122.609 604.469 122.609 602.281ZM181.812 623V615.594H181.625C179.969 617.875 178.469 619.547 177.125 620.609C175.812 621.672 174.312 622.531 172.625 623.188C170.969 623.844 169.031 624.172 166.812 624.172C161.562 624.172 157.562 622.469 154.812 619.062C152.062 615.656 150.688 610.625 150.688 603.969V575H170.656V602.469C170.656 607.188 172.422 609.547 175.953 609.547C177.891 609.547 179.344 608.906 180.312 607.625C181.312 606.344 181.812 604.531 181.812 602.188V575H201.781V623H181.812ZM232.484 562.062C232.484 564.875 231.453 567.156 229.391 568.906C227.359 570.656 224.672 571.531 221.328 571.531C218.078 571.531 215.406 570.625 213.312 568.812C211.25 567 210.219 564.75 210.219 562.062C210.219 559.312 211.219 557.094 213.219 555.406C215.25 553.688 217.953 552.828 221.328 552.828C224.672 552.828 227.359 553.688 229.391 555.406C231.453 557.094 232.484 559.312 232.484 562.062ZM211.344 623V575H231.312V623H211.344ZM240.969 623V551.938H260.938V623H240.969ZM302.656 623V617.422H302.469C300.875 619.516 298.797 621.172 296.234 622.391C293.672 623.578 291.141 624.172 288.641 624.172C284.547 624.172 280.938 623.172 277.812 621.172C274.688 619.141 272.344 616.312 270.781 612.688C269.25 609.062 268.484 604.781 268.484 599.844C268.484 594.75 269.406 590.234 271.25 586.297C273.094 582.359 275.688 579.297 279.031 577.109C282.375 574.922 286.125 573.828 290.281 573.828C292.25 573.828 294.062 574.109 295.719 574.672C297.406 575.234 298.859 576 300.078 576.969C301.328 577.906 302.125 578.844 302.469 579.781H302.656V551.938H322.625V623H302.656ZM303.078 597.547C303.078 594.672 302.438 592.438 301.156 590.844C299.906 589.25 298.203 588.453 296.047 588.453C293.891 588.453 292.125 589.453 290.75 591.453C289.406 593.422 288.734 596.062 288.734 599.375C288.734 606.156 291.078 609.547 295.766 609.547C297.984 609.547 299.75 608.641 301.062 606.828C302.406 604.984 303.078 602.312 303.078 598.812V597.547ZM353.422 562.062C353.422 564.875 352.391 567.156 350.328 568.906C348.297 570.656 345.609 571.531 342.266 571.531C339.016 571.531 336.344 570.625 334.25 568.812C332.188 567 331.156 564.75 331.156 562.062C331.156 559.312 332.156 557.094 334.156 555.406C336.188 553.688 338.891 552.828 342.266 552.828C345.609 552.828 348.297 553.688 350.328 555.406C352.391 557.094 353.422 559.312 353.422 562.062ZM332.281 623V575H352.25V623H332.281ZM393.031 623V596.797C393.031 593.828 392.578 591.703 391.672 590.422C390.797 589.109 389.359 588.453 387.359 588.453C385.641 588.453 384.297 589.125 383.328 590.469C382.359 591.812 381.875 593.531 381.875 595.625V623H361.906V575H381.875V582.5H382.062C383.656 579.75 385.797 577.625 388.484 576.125C391.172 574.594 394.094 573.828 397.25 573.828C407.75 573.828 413 580.453 413 593.703V623H393.031ZM474.031 616.297C474.031 625.516 471.125 632.688 465.312 637.812C459.531 642.969 451.078 645.547 439.953 645.547C436.953 645.547 434.047 645.312 431.234 644.844C428.422 644.375 426.406 643.844 425.188 643.25V627.594C427.188 628.844 429.531 629.844 432.219 630.594C434.906 631.344 437.297 631.719 439.391 631.719C443.859 631.719 447.438 630.641 450.125 628.484C452.812 626.328 454.156 623.469 454.156 619.906V616.953H453.969C452.531 619.141 450.547 620.891 448.016 622.203C445.516 623.516 442.828 624.172 439.953 624.172C433.766 624.172 428.875 622.031 425.281 617.75C421.688 613.438 419.891 607.5 419.891 599.938C419.891 594.75 420.828 590.172 422.703 586.203C424.578 582.234 427.188 579.188 430.531 577.062C433.875 574.906 437.562 573.828 441.594 573.828C447.125 573.828 451.25 575.875 453.969 579.969H454.156V575H474.031V616.297ZM454.484 597.641C454.484 594.828 453.844 592.594 452.562 590.938C451.312 589.281 449.641 588.453 447.547 588.453C445.297 588.453 443.5 589.453 442.156 591.453C440.812 593.453 440.141 596.125 440.141 599.469C440.141 602.562 440.703 605.016 441.828 606.828C442.953 608.641 444.734 609.547 447.172 609.547C449.453 609.547 451.234 608.625 452.516 606.781C453.828 604.906 454.484 602.406 454.484 599.281V597.641ZM194.139 649H190.969C190.781 648.088 190.453 647.287 189.984 646.597C189.524 645.906 188.961 645.327 188.297 644.858C187.64 644.381 186.912 644.023 186.111 643.784C185.309 643.545 184.474 643.426 183.605 643.426C182.02 643.426 180.584 643.827 179.297 644.628C178.018 645.429 177 646.609 176.241 648.169C175.491 649.729 175.116 651.642 175.116 653.909C175.116 656.176 175.491 658.089 176.241 659.649C177 661.209 178.018 662.389 179.297 663.19C180.584 663.991 182.02 664.392 183.605 664.392C184.474 664.392 185.309 664.273 186.111 664.034C186.912 663.795 187.64 663.442 188.297 662.973C188.961 662.496 189.524 661.912 189.984 661.222C190.453 660.523 190.781 659.722 190.969 658.818H194.139C193.9 660.156 193.466 661.354 192.835 662.411C192.204 663.467 191.42 664.366 190.483 665.108C189.545 665.841 188.493 666.399 187.325 666.783C186.166 667.166 184.926 667.358 183.605 667.358C181.372 667.358 179.386 666.812 177.648 665.722C175.909 664.631 174.541 663.08 173.544 661.068C172.547 659.057 172.048 656.67 172.048 653.909C172.048 651.148 172.547 648.761 173.544 646.75C174.541 644.739 175.909 643.188 177.648 642.097C179.386 641.006 181.372 640.46 183.605 640.46C184.926 640.46 186.166 640.652 187.325 641.036C188.493 641.419 189.545 641.982 190.483 642.723C191.42 643.456 192.204 644.351 192.835 645.408C193.466 646.456 193.9 647.653 194.139 649ZM206.83 667.409C205.058 667.409 203.502 666.987 202.164 666.143C200.835 665.3 199.795 664.119 199.045 662.602C198.303 661.085 197.933 659.312 197.933 657.284C197.933 655.239 198.303 653.453 199.045 651.928C199.795 650.402 200.835 649.217 202.164 648.374C203.502 647.53 205.058 647.108 206.83 647.108C208.603 647.108 210.154 647.53 211.484 648.374C212.822 649.217 213.862 650.402 214.603 651.928C215.353 653.453 215.728 655.239 215.728 657.284C215.728 659.312 215.353 661.085 214.603 662.602C213.862 664.119 212.822 665.3 211.484 666.143C210.154 666.987 208.603 667.409 206.83 667.409ZM206.83 664.699C208.177 664.699 209.285 664.354 210.154 663.663C211.024 662.973 211.667 662.065 212.085 660.94C212.502 659.815 212.711 658.597 212.711 657.284C212.711 655.972 212.502 654.749 212.085 653.615C211.667 652.482 211.024 651.565 210.154 650.866C209.285 650.168 208.177 649.818 206.83 649.818C205.484 649.818 204.376 650.168 203.507 650.866C202.637 651.565 201.994 652.482 201.576 653.615C201.159 654.749 200.95 655.972 200.95 657.284C200.95 658.597 201.159 659.815 201.576 660.94C201.994 662.065 202.637 662.973 203.507 663.663C204.376 664.354 205.484 664.699 206.83 664.699ZM223.351 655.188V667H220.334V647.364H223.248V650.432H223.504C223.964 649.435 224.663 648.634 225.601 648.028C226.538 647.415 227.748 647.108 229.231 647.108C230.561 647.108 231.724 647.381 232.721 647.926C233.719 648.463 234.494 649.281 235.048 650.381C235.602 651.472 235.879 652.852 235.879 654.523V667H232.862V654.727C232.862 653.185 232.461 651.983 231.66 651.122C230.859 650.253 229.76 649.818 228.362 649.818C227.399 649.818 226.538 650.027 225.78 650.445C225.03 650.862 224.437 651.472 224.003 652.273C223.568 653.074 223.351 654.045 223.351 655.188ZM255.301 651.761L252.591 652.528C252.421 652.077 252.169 651.638 251.837 651.212C251.513 650.777 251.07 650.419 250.507 650.138C249.945 649.857 249.225 649.716 248.347 649.716C247.145 649.716 246.144 649.993 245.343 650.547C244.55 651.092 244.154 651.787 244.154 652.631C244.154 653.381 244.426 653.973 244.972 654.408C245.517 654.842 246.369 655.205 247.529 655.494L250.443 656.21C252.199 656.636 253.507 657.288 254.368 658.166C255.229 659.036 255.659 660.156 255.659 661.528C255.659 662.653 255.335 663.659 254.688 664.545C254.048 665.432 253.154 666.131 252.003 666.642C250.852 667.153 249.514 667.409 247.989 667.409C245.986 667.409 244.328 666.974 243.016 666.105C241.703 665.236 240.872 663.966 240.523 662.295L243.387 661.58C243.659 662.636 244.175 663.429 244.933 663.957C245.7 664.486 246.702 664.75 247.938 664.75C249.344 664.75 250.46 664.452 251.287 663.855C252.122 663.25 252.54 662.526 252.54 661.682C252.54 661 252.301 660.429 251.824 659.969C251.347 659.5 250.614 659.151 249.625 658.92L246.352 658.153C244.554 657.727 243.233 657.067 242.389 656.172C241.554 655.268 241.137 654.139 241.137 652.784C241.137 651.676 241.448 650.696 242.07 649.844C242.7 648.991 243.557 648.322 244.639 647.837C245.73 647.351 246.966 647.108 248.347 647.108C250.29 647.108 251.816 647.534 252.923 648.386C254.04 649.239 254.833 650.364 255.301 651.761ZM268.741 647.364V649.92H258.564V647.364H268.741ZM261.53 642.659H264.547V661.375C264.547 662.227 264.671 662.866 264.918 663.293C265.174 663.71 265.498 663.991 265.89 664.136C266.29 664.273 266.712 664.341 267.155 664.341C267.488 664.341 267.76 664.324 267.974 664.29C268.187 664.247 268.357 664.213 268.485 664.188L269.099 666.898C268.894 666.974 268.608 667.051 268.242 667.128C267.876 667.213 267.411 667.256 266.849 667.256C265.996 667.256 265.161 667.072 264.343 666.706C263.533 666.339 262.86 665.781 262.323 665.031C261.795 664.281 261.53 663.335 261.53 662.193V642.659ZM273.279 667V647.364H276.194V650.33H276.398C276.756 649.358 277.404 648.57 278.341 647.964C279.279 647.359 280.336 647.057 281.512 647.057C281.733 647.057 282.01 647.061 282.343 647.07C282.675 647.078 282.927 647.091 283.097 647.108V650.176C282.995 650.151 282.76 650.112 282.394 650.061C282.036 650.001 281.657 649.972 281.256 649.972C280.302 649.972 279.449 650.172 278.699 650.572C277.958 650.964 277.37 651.51 276.935 652.209C276.509 652.899 276.296 653.687 276.296 654.574V667H273.279ZM299.048 658.972V647.364H302.066V667H299.048V663.676H298.844C298.384 664.673 297.668 665.521 296.696 666.22C295.725 666.911 294.497 667.256 293.014 667.256C291.787 667.256 290.696 666.987 289.742 666.45C288.787 665.905 288.037 665.087 287.492 663.996C286.946 662.896 286.673 661.511 286.673 659.841V647.364H289.691V659.636C289.691 661.068 290.091 662.21 290.892 663.062C291.702 663.915 292.733 664.341 293.986 664.341C294.736 664.341 295.499 664.149 296.274 663.766C297.058 663.382 297.715 662.794 298.243 662.001C298.78 661.209 299.048 660.199 299.048 658.972ZM315.569 667.409C313.728 667.409 312.143 666.974 310.813 666.105C309.483 665.236 308.461 664.038 307.745 662.513C307.029 660.987 306.671 659.244 306.671 657.284C306.671 655.29 307.037 653.53 307.77 652.004C308.512 650.47 309.543 649.273 310.864 648.412C312.194 647.543 313.745 647.108 315.518 647.108C316.898 647.108 318.143 647.364 319.251 647.875C320.358 648.386 321.266 649.102 321.974 650.023C322.681 650.943 323.12 652.017 323.29 653.244H320.273C320.043 652.349 319.532 651.557 318.739 650.866C317.955 650.168 316.898 649.818 315.569 649.818C314.393 649.818 313.361 650.125 312.475 650.739C311.597 651.344 310.911 652.2 310.417 653.308C309.931 654.408 309.688 655.699 309.688 657.182C309.688 658.699 309.927 660.02 310.404 661.145C310.89 662.27 311.572 663.143 312.449 663.766C313.336 664.388 314.376 664.699 315.569 664.699C316.353 664.699 317.064 664.562 317.704 664.29C318.343 664.017 318.884 663.625 319.327 663.114C319.77 662.602 320.086 661.989 320.273 661.273H323.29C323.12 662.432 322.698 663.476 322.025 664.405C321.36 665.325 320.478 666.058 319.378 666.604C318.287 667.141 317.018 667.409 315.569 667.409ZM336.241 647.364V649.92H326.064V647.364H336.241ZM329.03 642.659H332.047V661.375C332.047 662.227 332.171 662.866 332.418 663.293C332.674 663.71 332.998 663.991 333.39 664.136C333.79 664.273 334.212 664.341 334.655 664.341C334.988 664.341 335.26 664.324 335.474 664.29C335.687 664.247 335.857 664.213 335.985 664.188L336.599 666.898C336.394 666.974 336.108 667.051 335.742 667.128C335.376 667.213 334.911 667.256 334.349 667.256C333.496 667.256 332.661 667.072 331.843 666.706C331.033 666.339 330.36 665.781 329.823 665.031C329.295 664.281 329.03 663.335 329.03 662.193V642.659ZM340.779 667V647.364H343.796V667H340.779ZM342.313 644.091C341.725 644.091 341.218 643.891 340.792 643.49C340.374 643.089 340.165 642.608 340.165 642.045C340.165 641.483 340.374 641.001 340.792 640.601C341.218 640.2 341.725 640 342.313 640C342.901 640 343.404 640.2 343.822 640.601C344.248 641.001 344.461 641.483 344.461 642.045C344.461 642.608 344.248 643.089 343.822 643.49C343.404 643.891 342.901 644.091 342.313 644.091ZM357.299 667.409C355.526 667.409 353.971 666.987 352.633 666.143C351.303 665.3 350.264 664.119 349.514 662.602C348.772 661.085 348.401 659.312 348.401 657.284C348.401 655.239 348.772 653.453 349.514 651.928C350.264 650.402 351.303 649.217 352.633 648.374C353.971 647.53 355.526 647.108 357.299 647.108C359.072 647.108 360.623 647.53 361.953 648.374C363.291 649.217 364.33 650.402 365.072 651.928C365.822 653.453 366.197 655.239 366.197 657.284C366.197 659.312 365.822 661.085 365.072 662.602C364.33 664.119 363.291 665.3 361.953 666.143C360.623 666.987 359.072 667.409 357.299 667.409ZM357.299 664.699C358.646 664.699 359.754 664.354 360.623 663.663C361.492 662.973 362.136 662.065 362.553 660.94C362.971 659.815 363.18 658.597 363.18 657.284C363.18 655.972 362.971 654.749 362.553 653.615C362.136 652.482 361.492 651.565 360.623 650.866C359.754 650.168 358.646 649.818 357.299 649.818C355.953 649.818 354.845 650.168 353.975 650.866C353.106 651.565 352.463 652.482 352.045 653.615C351.627 654.749 351.419 655.972 351.419 657.284C351.419 658.597 351.627 659.815 352.045 660.94C352.463 662.065 353.106 662.973 353.975 663.663C354.845 664.354 355.953 664.699 357.299 664.699ZM373.819 655.188V667H370.802V647.364H373.717V650.432H373.973C374.433 649.435 375.132 648.634 376.069 648.028C377.007 647.415 378.217 647.108 379.7 647.108C381.03 647.108 382.193 647.381 383.19 647.926C384.187 648.463 384.963 649.281 385.517 650.381C386.071 651.472 386.348 652.852 386.348 654.523V667H383.331V654.727C383.331 653.185 382.93 651.983 382.129 651.122C381.328 650.253 380.229 649.818 378.831 649.818C377.868 649.818 377.007 650.027 376.248 650.445C375.498 650.862 374.906 651.472 374.471 652.273C374.037 653.074 373.819 654.045 373.819 655.188Z" fill="black"/>
</svg>
