<svg width="558" height="492" viewBox="0 0 558 492" fill="none" xmlns="http://www.w3.org/2000/svg">
<path fill-rule="evenodd" clip-rule="evenodd" d="M253.326 51L335.5 0.30844V0L335.721 0.172304L336 0V0.390386L558 173.722V198V231V442V492H505H336H284H0V442V334L85.0276 273L161 222.663V222L161.501 222.331L162 222V222.661L283.5 303L284 307.357V287.882L251 267.5L161 204H162V112L253.326 51ZM217 287.389L162 251.159V334V442H217V287.389ZM237 300.563V442H284V331.524L237 300.563ZM336 112V87.8225L407 133.613V442H336V320V274V204V112ZM437 442V152.962L506.833 198H505V442H437Z" fill="white"/>
</svg>
